<?xml version="1.0" encoding="utf-8"?>
<!-- Generator: Adobe Illustrator 23.0.5, SVG Export Plug-In . SVG Version: 6.00 Build 0)  -->
<svg version="1.1" id="Layer_1" xmlns="http://www.w3.org/2000/svg" xmlns:xlink="http://www.w3.org/1999/xlink" x="0px" y="0px"
	 viewBox="0 0 2500.7 740.9" style="enable-background:new 0 0 2500.7 740.9;" xml:space="preserve">
<style type="text/css">
	.st0{fill:#FFFFFF;}
	.st1{fill:#A6A6A6;}
	.st2{fill:url(#SVGID_1_);}
	.st3{fill:#46CCA6;stroke:#000000;stroke-width:14.4;}
	.st4{fill:#46CCA6;stroke:#000000;stroke-width:7.2;}
	.st5{fill:#46CCA6;}
	.st6{stroke:#000000;stroke-width:7.2;}
</style>
<title>android-app2</title>
<path class="st0" d="M2484.1,653.5c0,39.2-31.8,71-71,71H87.6c-39.3,0-71.1-31.7-71.2-71V87.6c0.1-39.3,31.9-71,71.2-71.1H2413
	c39.2,0,71,31.8,71.1,71l0,0L2484.1,653.5L2484.1,653.5z"/>
<path class="st1" d="M2413,741H87.6C39.3,741,0.1,701.8,0,653.5V87.6C0.1,39.2,39.3,0,87.6,0H2413c48.4,0.1,87.6,39.2,87.6,87.6
	v565.9C2500.6,701.7,2461.3,740.9,2413,741L2413,741z"/>
<path d="M2484.1,653.5c0,39.2-31.8,71-71,71H87.6c-39.3,0-71.1-31.7-71.2-71V87.6c0.1-39.3,31.9-71,71.2-71.1H2413
	c39.2,0,71,31.8,71.1,71l0,0L2484.1,653.5L2484.1,653.5z"/>
<linearGradient id="SVGID_1_" gradientUnits="userSpaceOnUse" x1="1494.0863" y1="-182.6024" x2="1494.0863" y2="-218.6525" gradientTransform="matrix(74.17 0 0 74.13 -108982.3203 14282.4316)">
	<stop  offset="0" style="stop-color:#1A1A1A;stop-opacity:0.1"/>
	<stop  offset="0.12" style="stop-color:#212121;stop-opacity:0.15"/>
	<stop  offset="0.31" style="stop-color:#353535;stop-opacity:0.23"/>
	<stop  offset="0.53" style="stop-color:#575757;stop-opacity:0.32"/>
	<stop  offset="0.78" style="stop-color:#858585;stop-opacity:0.42"/>
	<stop  offset="1" style="stop-color:#B3B3B3;stop-opacity:0.51"/>
</linearGradient>
<path class="st2" d="M2413,0H1167.5l487.8,741H2413c48.3,0,87.5-39.2,87.6-87.5V87.6C2500.6,39.2,2461.4,0,2413,0z"/>
<g id="b">
	<ellipse class="st3" cx="437.1" cy="268.8" rx="124.7" ry="115.1"/>
	<path class="st3" d="M342.6,240h189.1c16.6,0,30.1,13.5,30.1,30.1v189.1c0,16.6-13.5,30.1-30.1,30.1H342.6
		c-16.6,0-30.1-13.5-30.1-30.1V270.1C312.5,253.5,325.9,240,342.6,240z"/>
</g>
<g id="a">
	<path class="st4" d="M355.4,123.2L355.4,123.2c-4.3,2.4-5.8,7.8-3.4,12.1l48.5,87.5c2.4,4.3,7.8,5.8,12.1,3.5l0,0
		c4.3-2.4,5.8-7.8,3.4-12.1l-48.5-87.5C365.1,122.3,359.7,120.8,355.4,123.2z"/>
	<path id="c" class="st4" d="M600.2,268.8L600.2,268.8c-18.2,0-32.9,14.7-32.9,32.9v116.5c0,18.2,14.7,32.9,32.9,32.9l0,0
		c18.2,0,32.9-14.7,32.9-32.9V301.7C633,283.5,618.3,268.8,600.2,268.8z"/>
	<path class="st4" d="M483.7,401.7L483.7,401.7c-18.2,0-32.9,14.7-32.9,32.9c0,0,0,0,0,0V551c0,18.2,14.7,32.9,32.9,32.9l0,0l0,0
		c18.2,0,32.9-14.7,32.9-32.9c0,0,0,0,0,0V434.6C516.6,416.4,501.9,401.7,483.7,401.7C483.7,401.7,483.7,401.7,483.7,401.7z"/>
</g>
<path class="st4" d="M518.8,123.2L518.8,123.2c4.3,2.4,5.8,7.8,3.5,12.1l-48.5,87.5c-2.4,4.3-7.8,5.8-12.1,3.5l0,0
	c-4.3-2.4-5.8-7.8-3.5-12.1l48.5-87.5C509.1,122.3,514.5,120.8,518.8,123.2z"/>
<path class="st4" d="M274.1,268.8L274.1,268.8c18.2,0,32.9,14.7,32.9,32.9c0,0,0,0,0,0v116.5c0,18.2-14.7,32.9-32.9,32.9l0,0
	c-18.2,0-32.9-14.7-32.9-32.9V301.7C241.2,283.5,255.9,268.8,274.1,268.8z"/>
<path class="st4" d="M390.5,401.7L390.5,401.7c18.2,0,32.9,14.7,32.9,32.9V551c0,18.2-14.7,32.9-32.9,32.9l0,0
	c-18.2,0-32.9-14.7-32.9-32.9V434.6C357.7,416.4,372.4,401.7,390.5,401.7C390.5,401.7,390.5,401.7,390.5,401.7z"/>
<ellipse class="st5" cx="437.1" cy="268.8" rx="124.7" ry="115.1"/>
<path class="st5" d="M342.6,240h189.1c16.6,0,30.1,13.5,30.1,30.1v189.1c0,16.6-13.5,30.1-30.1,30.1H342.6
	c-16.6,0-30.1-13.5-30.1-30.1V270.1C312.5,253.5,325.9,240,342.6,240z"/>
<path class="st6" d="M307,273.6h260.3"/>
<circle class="st6" cx="379.6" cy="212.6" r="5.5"/>
<circle class="st6" cx="494.7" cy="212.6" r="5.5"/>
<path class="st0" d="M813.2,135.4c12.9-1.8,25.8-2.7,38.8-2.6c24.9,0,41.8,5,53.9,14.9c12.1,9.6,19.5,23.2,19.5,42
	c0,19.8-7.5,35.3-19.4,45.9c-13.2,11.5-34.2,17.4-59.7,17.4c-11.1,0.1-22.1-0.4-33.1-1.6L813.2,135.4z M835.7,234.9
	c4.8,0.6,9.7,0.8,14.5,0.6c33,0.2,51.3-16.9,51.3-44.7c0.2-25.8-17.3-40.6-48-40.6c-6-0.1-11.9,0.4-17.8,1.5L835.7,234.9z"/>
<path class="st0" d="M1033.4,208.2c0,30.3-23.4,45.8-48.1,45.8c-26,0-46.7-17.1-46.7-43.9s19.5-45.5,48.5-45.5
	C1014.8,164.5,1033.4,183.1,1033.4,208.2z M961.8,209.4c0,17.1,10.1,28.5,24.1,28.5c13.4,0,24.1-10.3,24.1-28.9
	c0-13.7-7.2-28.4-23.8-28.4C969.4,180.6,961.8,194.5,961.8,209.4z"/>
<path class="st0" d="M1063.8,166.6l9.8,38.5c2.3,9.1,4.3,18.4,6.1,28h0.3c1.9-9.4,4.8-18.9,7.5-27.9l12-38.6h18.4l11.5,37.7
	c2.8,10,5.5,19.5,7.4,28.9h0.3c1.5-9.4,3.7-18.9,6.3-29l10.4-37.6h22l-28.4,85.2h-21.4l-11-34.6c-2.8-9.1-5.2-18.3-7.1-27.6h-0.3
	c-1.7,9.3-4.1,18.5-7,27.5l-11.6,34.8h-21.4l-26.7-85.2L1063.8,166.6z"/>
<path class="st0" d="M1191.1,192.4c0-9.9-0.3-18.5-0.7-25.8h19.7l1.1,13.7h0.6c3.7-6.5,13.6-15.8,29.5-15.8
	c15.1,0,33.1,9.1,33.1,38.4v48.9h-22.5v-46.1c0-13.5-5.4-23.1-18.4-23.1c-9.9,0-16.4,6.9-18.9,13.4c-0.7,2.1-1,4.3-1,6.5v49.3h-22.5
	L1191.1,192.4z"/>
<path class="st0" d="M1299.3,126.5h22.5v125.3h-22.5V126.5z"/>
<path class="st0" d="M1435.7,208.2c0,30.3-23.4,45.8-48.1,45.8c-26,0-46.7-17.1-46.7-43.9s19.5-45.5,48.4-45.5
	C1417.1,164.5,1435.7,183.1,1435.7,208.2z M1364.2,209.4c0,17.1,10.1,28.5,24.1,28.5c13.4,0,24.1-10.3,24.1-28.9
	c0-13.7-7.2-28.4-23.8-28.4C1371.8,180.6,1364.2,194.5,1364.2,209.4L1364.2,209.4z"/>
<path class="st0" d="M1506.5,251.8l-1.6-9.8h-0.6c-5.5,6.8-15.3,11.9-27.5,11.9c-19,0-28.7-13.1-28.7-25.4
	c0-21.4,19.4-32.8,54.8-32.6v-1.1c0-4.5-1.8-14.9-18.8-14.8c-9.1,0-19,3-25.3,6.9l-4.5-14.4c7.2-4.3,18.9-8.1,33.3-8.1
	c29.1,0,37.7,18,37.7,36.8v29.6c-0.1,7,0.4,14,1.4,20.9L1506.5,251.8z M1503.6,210.4c-17.8-0.3-32.8,3.3-32.8,15.6
	c0,7.9,5.6,12,13.3,12c8.3,0.2,15.8-4.8,18.9-12.5c0.5-1.6,0.7-3.2,0.7-4.8L1503.6,210.4z"/>
<path class="st0" d="M1635.6,126.5v101.1c0,9.3,0.3,18.7,0.7,24.2h-20.2l-0.9-14.6h-0.3c-5.8,10.7-17.3,16.7-31,16.7
	c-21.6,0-40-17.1-40-43.5c-0.2-28.1,19.3-45.9,42.1-45.9c13.2,0,22.7,5.3,26.9,11.7h0.3v-49.7H1635.6z M1613.1,203.1
	c0-1.9-0.2-3.8-0.6-5.7c-2.3-8.8-10.2-15.9-21.3-15.9c-15.4,0-24.5,11.8-24.5,27.8c0,15.2,8.8,26.8,24.3,26.8
	c10.2,0,19.1-7,21.4-16.9c0.5-2.1,0.7-4.3,0.7-6.6L1613.1,203.1z"/>
<path class="st0" d="M1817.8,191.8c0,37.9-26.8,62.2-63.1,62.2c-36.6,0-60.8-25.6-60.8-59.8c0-36.5,26.1-62.4,62.5-62.4
	C1794,131.8,1817.8,157.4,1817.8,191.8z M1717.7,193.5c0,23.5,14.6,42.9,38.1,42.9c23.7,0,38.1-18.8,38.1-43.8
	c0-22.6-13.5-43.2-38-43.2S1717.7,169.4,1717.7,193.5z"/>
<path class="st0" d="M1919.9,226c0,10.4,0.3,18.9,0.7,25.8h-19.7l-1-14.2h-0.6c-3.7,6.3-12.7,16.3-30,16.3
	c-15.5,0-32.3-8.5-32.3-38.2v-49.1h22.5v45c0,14.8,5.2,24.1,17.9,24.1c8.2,0,15.6-5,18.7-12.6c0.8-2,1.2-4.2,1.2-6.4v-50.1h22.5
	L1919.9,226z"/>
<path class="st0" d="M1945.2,195.1c0-12.6-0.2-20.8-0.7-28.5h19.4l0.8,17.3h0.6c4.5-13.1,15.4-19.4,25.3-19.4
	c1.8-0.1,3.6,0.1,5.4,0.5v20.8c-2.3-0.5-4.7-0.8-7.1-0.8c-11.5,0-18.9,6.9-20.8,16.9c-0.3,2-0.5,3.9-0.5,5.9v43.9h-22.5
	L1945.2,195.1z"/>
<path class="st0" d="M840.3,483.9l-16.1,48.9h-33.8l59.6-168.5h41.9l61.4,168.5h-35.4l-17.3-48.9H840.3z M894.6,459.8l-15.3-42.5
	c-3.7-10.3-6.6-20.4-9.4-29.5h-0.5c-2.6,9.2-5.3,19.4-8.5,29.3l-14.9,42.6H894.6z"/>
<path class="st0" d="M975.8,447.8c0-14.2-0.4-26.4-1-36.8h28.1l1.6,19.6h0.8c5.3-9.4,19.4-22.6,42.1-22.6c21.5,0,47.3,13,47.3,54.9
	v69.8h-32.2v-65.8c0-19.2-7.7-33-26.2-33c-14.1,0-23.5,9.8-27,19.1c-1,3-1.5,6.2-1.4,9.3v70.4h-32.2V447.8z"/>
<path class="st0" d="M1252.6,353.7v144.5c0,13.3,0.4,26.6,1,34.5h-28.9l-1.3-20.9h-0.5c-8.3,15.3-24.8,23.9-44.2,23.9
	c-30.9,0-57.2-24.4-57.2-62.1c-0.3-40.1,27.6-65.6,60.1-65.6c18.9,0,32.4,7.6,38.4,16.7h0.5v-71L1252.6,353.7z M1220.4,463.1
	c0-2.7-0.2-5.5-0.8-8.2c-3.3-12.6-14.6-22.7-30.4-22.7c-22,0-35,16.9-35,39.7c0,21.7,12.6,38.2,34.7,38.2c14.6,0,27.2-10,30.6-24.2
	c0.7-3.1,1-6.2,0.9-9.4L1220.4,463.1z"/>
<path class="st0" d="M1288.5,451.8c0-18-0.3-29.7-1-40.7h27.8l1.1,24.7h0.9c6.4-18.8,22-27.7,36.2-27.7c2.6-0.1,5.2,0.2,7.7,0.8
	v29.7c-3.3-0.7-6.7-1.1-10.1-1.1c-16.5,0-26.9,9.9-29.7,24.1c-0.5,2.8-0.7,5.6-0.7,8.5v62.7h-32.2L1288.5,451.8z"/>
<path class="st0" d="M1508.9,470.4c0,43.3-33.4,65.3-68.8,65.3c-37.2,0-66.7-24.4-66.7-62.7c0-38.6,27.9-65,69.2-65
	C1482.4,408,1508.9,434.6,1508.9,470.4z M1406.8,472.1c0,24.4,14.4,40.7,34.5,40.7c19.1,0,34.4-14.7,34.4-41.2
	c0-19.6-10.3-40.6-34-40.6C1417.6,431,1406.8,451,1406.8,472.1z"/>
<path class="st0" d="M1570.3,376.2c0,9.2-6.8,17-18.5,17c-11,0-17.9-7.8-17.9-17s7.1-17,18.2-17S1570.2,366.8,1570.3,376.2z
	 M1536,532.7V411h32.2v121.7H1536z"/>
<path class="st0" d="M1726.6,353.7v144.5c0,13.3,0.4,26.6,1,34.5h-28.9l-1.3-20.9h-0.5c-8.3,15.3-24.8,23.9-44.2,23.9
	c-30.9,0-57.2-24.4-57.2-62.1c-0.3-40.1,27.6-65.6,60.1-65.6c18.9,0,32.4,7.6,38.4,16.7h0.5v-71L1726.6,353.7z M1694.4,463.1
	c0-2.7-0.2-5.5-0.8-8.2c-3.3-12.6-14.6-22.7-30.4-22.7c-22,0-35,16.9-35,39.7c0,21.7,12.6,38.2,34.7,38.2c14.6,0,27.2-10,30.6-24.2
	c0.7-3.1,1-6.2,0.9-9.4L1694.4,463.1z"/>
<path class="st0" d="M1856,483.9l-16.1,48.9H1806l59.6-168.5h41.9l61.4,168.5h-35.4l-17.3-48.9H1856z M1910.3,459.8l-15.3-42.5
	c-3.7-10.3-6.6-20.4-9.4-29.5h-0.5c-2.6,9.2-5.3,19.4-8.5,29.3l-14.9,42.6H1910.3z"/>
<path class="st0" d="M1991.5,452c0-15.6-0.4-29.2-1-41h28.3l1.6,20h0.5c10-14.5,25.8-23,47.1-23c29.1,0,55.9,23.2,55.9,61.6
	c0,44.1-30.6,66.1-60.9,66.1c-16.9,0-31.6-6.3-38.8-17.4h-0.5v64.4h-32.2L1991.5,452z M2023.7,479.6c0,2.6,0.2,5.2,0.7,7.8
	c3.2,12.7,15.5,23.9,31.5,23.9c21.5,0,35.3-15.2,35.3-39.9c0-20.7-12-38.6-34.3-38.6c-15.2,0-28.4,10.4-32,25.2
	c-0.7,2.4-1,4.9-1.1,7.4L2023.7,479.6z"/>
<path class="st0" d="M2151,452c0-15.6-0.4-29.2-1-41h28.3l1.6,20h0.5c10-14.5,25.8-23,47.1-23c29.1,0,55.9,23.2,55.9,61.6
	c0,44.1-30.6,66.1-60.9,66.1c-16.9,0-31.6-6.3-38.8-17.4h-0.5v64.4H2151V452z M2183.2,479.6c0,2.6,0.2,5.2,0.7,7.8
	c3.1,12.7,15.5,23.9,31.4,23.9c21.5,0,35.3-15.2,35.3-39.9c0-20.7-12-38.6-34.3-38.6c-17.9,0.4-32.4,14.7-33.1,32.5L2183.2,479.6z"
	/>
</svg>
