<svg xmlns="http://www.w3.org/2000/svg" width="21" height="21.176" viewBox="0 0 21 21.176">
  <g id="Group_5014" data-name="Group 5014" transform="translate(-0.412)">
    <g id="_002-apple" data-name="002-apple" transform="translate(2.118)">
      <path id="Path_13146" data-name="Path 13146" d="M51.639,134.256c-3.074-.018-5.617-6.452-5.617-9.728,0-5.352,3.916-6.524,5.425-6.524a6.118,6.118,0,0,1,2.047.516,4.488,4.488,0,0,0,1.169.344,3.573,3.573,0,0,0,.839-.279,6.587,6.587,0,0,1,2.527-.626h.006A5.131,5.131,0,0,1,62.37,120.2l.316.487-.455.352a3.939,3.939,0,0,0-1.836,3.237,3.658,3.658,0,0,0,1.988,3.378c.285.176.58.357.58.753,0,.259-2.014,5.814-4.938,5.814a3.893,3.893,0,0,1-1.668-.415,3.315,3.315,0,0,0-1.484-.367,3.744,3.744,0,0,0-1.175.326,5.64,5.64,0,0,1-2.039.488Z" transform="translate(-46.022 -113.079)" fill="#fff"/>
      <path id="Path_13147" data-name="Path 13147" d="M259.035,0c.076,2.816-1.888,4.769-3.85,4.646A4.453,4.453,0,0,1,259.035,0Z" transform="translate(-246.718)" fill="#fff"/>
    </g>
    <rect id="Rectangle_3030" data-name="Rectangle 3030" width="21" height="21" transform="translate(0.412)" fill="none"/>
  </g>
</svg>
