<svg xmlns="http://www.w3.org/2000/svg" width="1920" height="184" viewBox="0 0 1920 184">
  <metadata><?xpacket begin="﻿" id="W5M0MpCehiHzreSzNTczkc9d"?>
<x:xmpmeta xmlns:x="adobe:ns:meta/" x:xmptk="Adobe XMP Core 5.6-c138 79.159824, 2016/09/14-01:09:01        ">
   <rdf:RDF xmlns:rdf="http://www.w3.org/1999/02/22-rdf-syntax-ns#">
      <rdf:Description rdf:about=""/>
   </rdf:RDF>
</x:xmpmeta>
<?xpacket end="w"?></metadata>
<defs>
    <style>
      .cls-1, .cls-2 {
        fill: #fff;
        fill-rule: evenodd;
      }

      .cls-2 {
        opacity: 0.35;
      }
    </style>
  </defs>
  <path class="cls-1" d="M0,104.135a319.8,319.8,0,0,1,34.016-16.1C79.243,69.856,137.541,61.778,189.167,71.985c79.572,15.829,124.088,68.94,199.941,90.446,66.72,18.886,145.909,10.043,214.488-6.168,133.385-31.55,260.535-68.285,408.194-60.588,80.94,4.2,159.14,21.178,230.46,44.759,73.55,24.344,160.67,58.241,245.38,31.822,72.08-22.543,109.6-72.106,176.32-99.343,49.87-20.36,113.64-27.674,172.32-19.814A307.731,307.731,0,0,1,1920,76.352v107.64H0V104.135Z"/>
  <path class="cls-2" d="M1079.48,183.945h0.08a0.647,0.647,0,0,0-.08.055v-0.055M1447.2,67.633q10.05,0,20.07.325c124.52,4.1,244.39,46.854,347.73,115.987H1079.56c4.62-3.148,9.25-6.242,13.82-9.337A643.2,643.2,0,0,1,1447.2,67.633M200.213,49a167.847,167.847,0,0,1,26.06,2.03c60.974,9.556,101.1,62.253,154.735,87.919,18.074,8.64,35.137,12.178,51.583,12.178,46.954,0,88.891-28.83,135.062-50.022a258.767,258.767,0,0,1,107.666-23.04c55.208,0,110.5,16.877,155.443,49.58,23.208,16.928,45.43,38.225,68.527,56.355H0V147.358C57.758,99.592,124.625,49,200.213,49"/>
  <path class="cls-2" d="M1749.26,0c56.97,0,114.15,7.468,170.74,19.9V184H0V81.094a174.838,174.838,0,0,1,21.612-1.35c4.281,0,8.452.162,12.459,0.474,39.922,3.011,77.767,18.282,114.572,34.1s73.774,32.513,113.314,38.808a244.2,244.2,0,0,0,38.414,3.017c115.155,0,214.616-79.137,324.444-106.47a417.011,417.011,0,0,1,100.991-11.9c78.924,0,158.65,19.6,233.592,46.162,91,32.234,184.492,75.325,278.822,75.325a281.381,281.381,0,0,0,56.36-5.534c79.85-16.257,146.68-68.915,220.45-103.509C1591.12,14.484,1669.98.005,1749.26,0"/>
</svg>
